<svg xmlns="http://www.w3.org/2000/svg" viewBox="0 0 1400 1100" font-family="'Segoe UI', system-ui, -apple-system, sans-serif">
  <defs>
    <linearGradient id="bg" x1="0" y1="0" x2="0" y2="1">
      <stop offset="0%" stop-color="#0b1120"/><stop offset="100%" stop-color="#111827"/>
    </linearGradient>
    <linearGradient id="panel" x1="0" y1="0" x2="0" y2="1">
      <stop offset="0%" stop-color="#1e293b"/><stop offset="100%" stop-color="#1a2332"/>
    </linearGradient>
    <linearGradient id="panelTop" x1="0" y1="0" x2="1" y2="0">
      <stop offset="0%" stop-color="#334155"/><stop offset="100%" stop-color="#2d3748"/>
    </linearGradient>
    <linearGradient id="a2" x1="0" y1="0" x2="1" y2="1">
      <stop offset="0%" stop-color="#10b981"/><stop offset="100%" stop-color="#34d399"/>
    </linearGradient>
    <linearGradient id="a3" x1="0" y1="0" x2="1" y2="1">
      <stop offset="0%" stop-color="#3b82f6"/><stop offset="100%" stop-color="#06b6d4"/>
    </linearGradient>
    <linearGradient id="nb" x1="0" y1="0" x2="1" y2="0">
      <stop offset="0%" stop-color="#ec4899"/><stop offset="100%" stop-color="#f43f5e"/>
    </linearGradient>
    <filter id="sh"><feDropShadow dx="0" dy="2" stdDeviation="6" flood-color="#000" flood-opacity="0.4"/></filter>
  </defs>
  <rect width="1400" height="1100" fill="url(#bg)" rx="20"/>
  <rect x="0" y="0" width="1400" height="80" fill="url(#panelTop)" rx="20"/>
  <rect x="0" y="40" width="1400" height="40" fill="url(#panelTop)"/>
  <text x="700" y="38" fill="#f1f5f9" font-size="22" font-weight="700" text-anchor="middle">Create / Edit Tab Redesign</text>
  <text x="700" y="60" fill="#64748b" font-size="13" text-anchor="middle">Full-featured Finetune Editor matching Wan2GP built-in Alt+F editor</text>
  <rect x="1210" y="16" width="60" height="20" rx="10" fill="#1e293b" stroke="#334155" stroke-width="1"/>
  <text x="1240" y="30" fill="#94a3b8" font-size="10" text-anchor="middle">v3.2.0</text>
  <rect x="1278" y="16" width="45" height="20" rx="10" fill="url(#nb)"/>
  <text x="1300" y="30" fill="#fff" font-size="10" font-weight="600" text-anchor="middle">NEW</text>
  <rect x="40" y="100" width="1320" height="65" rx="10" fill="url(#panel)" filter="url(#sh)"/>
  <rect x="60" y="110" width="18" height="18" rx="4" fill="#334155"/>
  <text x="85" y="124" fill="#e2e8f0" font-size="12">Import JSON</text>
  <rect x="160" y="112" width="200" height="16" rx="4" fill="#334155"/>
  <text x="170" y="124" fill="#64748b" font-size="10">Click to upload .json ...</text>
  <rect x="370" y="110" width="80" height="18" rx="4" fill="#334155"/>
  <text x="410" y="124" fill="#94a3b8" font-size="11" text-anchor="middle">Fill from JSON</text>
  <rect x="500" y="110" width="130" height="16" rx="4" fill="#334155"/>
  <text x="510" y="124" fill="#e2e8f0" font-size="11">Source Model</text>
  <text x="640" y="124" fill="#64748b" font-size="11">(finetune_source_model)</text>
  <rect x="40" y="180" width="1320" height="550" rx="12" fill="url(#panel)" filter="url(#sh)"/>
  <text x="60" y="208" fill="#64748b" font-size="12" font-weight="600">FINETUNE DETAILS</text>
  <line x1="60" y1="215" x2="1340" y2="215" stroke="#1e293b" stroke-width="1"/>
  <text x="60" y="242" fill="#e2e8f0" font-size="12">ID</text>
  <text x="85" y="260" fill="#64748b" font-size="10">(filename without .json)</text>
  <rect x="200" y="232" width="250" height="26" rx="6" fill="#1a2332" stroke="#334155" stroke-width="1"/>
  <text x="210" y="249" fill="#94a3b8" font-size="12">my-finetune</text>
  <rect x="460" y="232" width="18" height="18" rx="3" fill="#10b981"/>
  <text x="485" y="247" fill="#e2e8f0" font-size="12">auto</text>
  <line x1="470" y1="230" x2="500" y2="160" stroke="#10b981" stroke-width="1.5" stroke-dasharray="3,2"/>
  <circle cx="470" cy="230" r="4" fill="#10b981"/>
  <rect x="510" y="142" width="160" height="55" rx="6" fill="#064e3b" stroke="#10b981" stroke-width="1"/>
  <text x="520" y="158" fill="#6ee7b7" font-size="10" font-weight="600">Auto-ID</text>
  <text x="520" y="173" fill="#94a3b8" font-size="9">Sanitizes, generates from</text>
  <text x="520" y="186" fill="#94a3b8" font-size="9">name + source, deduplicates</text>
  <text x="60" y="290" fill="#e2e8f0" font-size="12">Name</text>
  <rect x="200" y="278" width="550" height="26" rx="6" fill="#1a2332" stroke="#334155" stroke-width="1"/>
  <text x="210" y="295" fill="#94a3b8" font-size="12">My Finetune Model</text>
  <text x="60" y="328" fill="#e2e8f0" font-size="12">Architecture</text>
  <rect x="200" y="316" width="250" height="26" rx="6" fill="#1a2332" stroke="#334155" stroke-width="1"/>
  <text x="210" y="333" fill="#94a3b8" font-size="12">t2v</text>
  <text x="60" y="370" fill="#e2e8f0" font-size="12">Description</text>
  <rect x="200" y="356" width="550" height="24" rx="4" fill="#1a2332"/>
  <rect x="210" y="360" width="20" height="16" rx="2" fill="#2d3748"/><text x="220" y="372" fill="#94a3b8" font-size="10" font-weight="700" text-anchor="middle">B</text>
  <rect x="234" y="360" width="20" height="16" rx="2" fill="#2d3748"/><text x="244" y="372" fill="#94a3b8" font-size="10" font-style="italic" text-anchor="middle">I</text>
  <rect x="258" y="360" width="20" height="16" rx="2" fill="#2d3748"/><text x="268" y="372" fill="#94a3b8" font-size="10" font-weight="700" text-anchor="middle">H</text>
  <circle cx="290" cy="368" r="2" fill="#475569"/>
  <rect x="298" y="360" width="20" height="16" rx="2" fill="#2d3748"/><text x="308" y="372" fill="#94a3b8" font-size="12" text-anchor="middle">•</text>
  <rect x="322" y="360" width="20" height="16" rx="2" fill="#2d3748"/><text x="332" y="372" fill="#94a3b8" font-size="10" text-anchor="middle">L</text>
  <rect x="346" y="360" width="20" height="16" rx="2" fill="#2d3748"/><text x="356" y="372" fill="#94a3b8" font-size="10" text-anchor="middle">`</text>
  <line x1="210" y1="368" x2="120" y2="130" stroke="#f59e0b" stroke-width="1.5" stroke-dasharray="3,2"/>
  <circle cx="210" cy="368" r="4" fill="#f59e0b"/>
  <rect x="30" y="108" width="170" height="55" rx="6" fill="#451a03" stroke="#f59e0b" stroke-width="1"/>
  <text x="40" y="125" fill="#fbbf24" font-size="10" font-weight="600">Markdown Toolbar</text>
  <text x="40" y="140" fill="#94a3b8" font-size="9">Bold, Italic, Heading,</text>
  <text x="40" y="153" fill="#94a3b8" font-size="9">List, Link, Code buttons</text>
  <rect x="200" y="384" width="550" height="40" rx="6" fill="#1a2332" stroke="#334155" stroke-width="1"/>
  <text x="210" y="400" fill="#475569" font-size="11">A cinematic video showcasing...</text>
  <text x="210" y="416" fill="#475569" font-size="11">high-quality output with consistent lighting...</text>
  <text x="60" y="445" fill="#e2e8f0" font-size="12">Tags</text>
  <text x="85" y="460" fill="#64748b" font-size="10">(comma-separated)</text>
  <rect x="200" y="435" width="550" height="26" rx="6" fill="#1a2332" stroke="#334155" stroke-width="1"/>
  <text x="210" y="452" fill="#94a3b8" font-size="12">cinematic, animation, photorealistic</text>
  <line x1="60" y1="478" x2="1340" y2="478" stroke="#1e293b" stroke-width="1"/>
  <text x="60" y="496" fill="#64748b" font-size="12" font-weight="600">SUB-TABS</text>
  <rect x="60" y="508" width="1280" height="32" rx="6" fill="#1a2332"/>
  <rect x="62" y="508" width="100" height="32" rx="6" fill="#2d3748"/>
  <text x="112" y="528" fill="#e2e8f0" font-size="12" font-weight="600" text-anchor="middle">URLs</text>
  <text x="172" y="528" fill="#64748b" font-size="12" text-anchor="middle">LoRAs</text>
  <text x="250" y="528" fill="#64748b" font-size="12" text-anchor="middle">Resolutions</text>
  <text x="340" y="528" fill="#64748b" font-size="12" text-anchor="middle">Help</text>
  <text x="430" y="528" fill="#64748b" font-size="12" text-anchor="middle">Prompt Enhancer</text>
  <text x="540" y="528" fill="#64748b" font-size="12" text-anchor="middle">Settings</text>
  <rect x="60" y="542" width="1280" height="180" rx="0 0 8 8" fill="#1a2332"/>
  <rect x="80" y="554" width="200" height="18" rx="4" fill="#334155"/><text x="90" y="566" fill="#94a3b8" font-size="11">Main Checkpoints</text>
  <rect x="290" y="554" width="200" height="18" rx="4" fill="#334155"/><text x="300" y="566" fill="#64748b" font-size="11">Secondary Checkpoints</text>
  <rect x="500" y="554" width="200" height="18" rx="4" fill="#334155"/><text x="510" y="566" fill="#64748b" font-size="11">Text Encoder Checkpoints</text>
  <rect x="80" y="578" width="280" height="30" rx="6" fill="#111827" stroke="#334155" stroke-width="1"/>
  <text x="90" y="597" fill="#475569" font-size="11">https://huggingface.co/.../model.safetensors</text>
  <rect x="370" y="578" width="24" height="30" rx="6" fill="#334155"/><text x="382" y="598" fill="#94a3b8" font-size="13" text-anchor="middle">📂</text>
  <rect x="420" y="578" width="280" height="30" rx="6" fill="#111827" stroke="#334155" stroke-width="1"/>
  <text x="430" y="597" fill="#475569" font-size="11">https://huggingface.co/.../secondary.safetensors</text>
  <rect x="710" y="578" width="24" height="30" rx="6" fill="#334155"/><text x="722" y="598" fill="#94a3b8" font-size="13" text-anchor="middle">📂</text>
  <text x="80" y="630" fill="#94a3b8" font-size="11">VAE_URLs (one/line)</text>
  <rect x="200" y="616" width="350" height="30" rx="6" fill="#111827" stroke="#334155" stroke-width="1"/>
  <text x="210" y="635" fill="#475569" font-size="11">https://huggingface.co/.../vae.safetensors</text>
  <text x="600" y="630" fill="#94a3b8" font-size="11">preload_URLs (one/line)</text>
  <rect x="720" y="616" width="350" height="30" rx="6" fill="#111827" stroke="#334155" stroke-width="1"/>
  <text x="80" y="668" fill="#64748b" font-size="11">custom_url_1</text>
  <rect x="200" y="654" width="250" height="26" rx="6" fill="#111827" stroke="#334155" stroke-width="1"/>
  <text x="480" y="668" fill="#64748b" font-size="11">custom_url_2</text>
  <rect x="580" y="654" width="250" height="26" rx="6" fill="#111827" stroke="#334155" stroke-width="1"/>
  <rect x="60" y="728" width="1280" height="40" rx="8" fill="#1a2332"/>
  <rect x="80" y="736" width="120" height="24" rx="4" fill="#475569"/><text x="140" y="753" fill="#e2e8f0" font-size="11" text-anchor="middle">Validate URLs</text>
  <rect x="210" y="736" width="160" height="24" rx="4" fill="url(#a3)"/><text x="290" y="753" fill="#fff" font-size="11" font-weight="600" text-anchor="middle">Download Missing Files</text>
  <line x1="1345" y1="540" x2="1380" y2="560" stroke="#6366f1" stroke-width="1.5" stroke-dasharray="3,2"/>
  <rect x="1380" y="508" width="30" height="180" rx="6" fill="#1e293b" stroke="#334155" stroke-width="1"/>
  <text x="1395" y="580" fill="#64748b" font-size="9" text-anchor="middle" writing-mode="vertical-rl">6 TABS</text>
  <rect x="40" y="748" width="1320" height="80" rx="12" fill="url(#panel)" filter="url(#sh)"/>
  <rect x="60" y="762" width="120" height="22" rx="4" fill="url(#a2)"/>
  <text x="120" y="777" fill="#fff" font-size="11" font-weight="600" text-anchor="middle">CREATOR MODE</text>
  <text x="200" y="777" fill="#64748b" font-size="11">(no source model set)</text>
  <rect x="500" y="760" width="100" height="30" rx="6" fill="url(#a2)"/><text x="550" y="780" fill="#fff" font-size="12" font-weight="600" text-anchor="middle">Create</text>
  <rect x="615" y="760" width="120" height="30" rx="6" fill="#334155"/><text x="675" y="780" fill="#e2e8f0" font-size="12" text-anchor="middle">Create &amp; New</text>
  <rect x="750" y="760" width="80" height="30" rx="6" fill="#475569"/><text x="790" y="780" fill="#e2e8f0" font-size="12" text-anchor="middle">Cancel</text>
  <rect x="40" y="845" width="1320" height="80" rx="12" fill="url(#panel)" filter="url(#sh)"/>
  <rect x="60" y="859" width="120" height="22" rx="4" fill="url(#a3)"/>
  <text x="120" y="874" fill="#fff" font-size="11" font-weight="600" text-anchor="middle">EDITOR MODE</text>
  <text x="200" y="874" fill="#64748b" font-size="11">(source model set)</text>
  <rect x="480" y="857" width="80" height="30" rx="6" fill="url(#a3)"/><text x="520" y="877" fill="#fff" font-size="12" font-weight="600" text-anchor="middle">Save</text>
  <rect x="575" y="857" width="80" height="30" rx="6" fill="#334155"/><text x="615" y="877" fill="#e2e8f0" font-size="12" text-anchor="middle">Export</text>
  <rect x="670" y="857" width="120" height="30" rx="6" fill="#334155"/><text x="730" y="877" fill="#e2e8f0" font-size="12" text-anchor="middle">Save &amp; Upload</text>
  <rect x="805" y="857" width="80" height="30" rx="6" fill="#dc2626"/><text x="845" y="877" fill="#fff" font-size="12" text-anchor="middle">Delete</text>
  <rect x="900" y="857" width="80" height="30" rx="6" fill="#475569"/><text x="940" y="877" fill="#e2e8f0" font-size="12" text-anchor="middle">Cancel</text>
  <line x1="180" y1="770" x2="180" y2="810" stroke="#10b981" stroke-width="1.5" stroke-dasharray="3,2"/>
  <line x1="180" y1="865" x2="180" y2="830" stroke="#3b82f6" stroke-width="1.5" stroke-dasharray="3,2"/>
  <rect x="1050" y="790" width="200" height="60" rx="6" fill="#1e293b" stroke="#334155" stroke-width="1"/>
  <text x="1060" y="808" fill="#e2e8f0" font-size="11" font-weight="600">Creator/Editor Mode</text>
  <text x="1060" y="825" fill="#94a3b8" font-size="9">Source Model presence toggles</text>
  <text x="1060" y="838" fill="#94a3b8" font-size="9">between Creator/Editor action rows</text>
  <line x1="80" y1="748" x2="40" y2="650" stroke="#f43f5e" stroke-width="1.5" stroke-dasharray="3,2"/>
  <circle cx="80" cy="748" r="4" fill="#f43f5e"/>
  <rect x="1050" y="640" width="200" height="55" rx="6" fill="#1e293b" stroke="#334155" stroke-width="1"/>
  <text x="1060" y="658" fill="#e2e8f0" font-size="11" font-weight="600">URL Validation</text>
  <text x="1060" y="675" fill="#94a3b8" font-size="9">Per-URL green/red status.</text>
  <text x="1060" y="688" fill="#94a3b8" font-size="9">Pre-Download missing files.</text>
  <rect x="40" y="945" width="1320" height="140" rx="12" fill="url(#panel)" filter="url(#sh)"/>
  <text x="60" y="972" fill="#e2e8f0" font-size="14" font-weight="600">Key Improvements</text>
  <circle cx="80" cy="996" r="3" fill="#6366f1"/><text x="92" y="1000" fill="#94a3b8" font-size="11">Tabbed layout with 6 sub-tabs (URLs, LoRAs, Resolutions, Help, Prompt Enhancer, Settings)</text>
  <circle cx="80" cy="1018" r="3" fill="#10b981"/><text x="92" y="1022" fill="#94a3b8" font-size="11">Auto-ID generation with sanitization and deduplication against existing .json files</text>
  <circle cx="80" cy="1040" r="3" fill="#3b82f6"/><text x="92" y="1044" fill="#94a3b8" font-size="11">Markdown editor toolbar (Bold, Italic, Heading, List, Link, Code) injected via JS</text>
  <circle cx="600" cy="996" r="3" fill="#f59e0b"/><text x="612" y="1000" fill="#94a3b8" font-size="11">Creator/Editor mode switching based on Source Model presence</text>
  <circle cx="600" cy="1018" r="3" fill="#ec4899"/><text x="612" y="1022" fill="#94a3b8" font-size="11">Import from JSON, Export via gr.DownloadButton, two-step Delete confirmation</text>
  <circle cx="600" cy="1040" r="3" fill="#06b6d4"/><text x="612" y="1044" fill="#94a3b8" font-size="11">LocalFilePickerTextbox for large checkpoint/LoRA files with LORA_FILE_EXTENSIONS</text>
  <text x="60" y="1072" fill="#475569" font-size="10">Wan2GP Finetune Manager v3.2.0 - github.com/GKartist75/Wan2GP-finetune-manager</text>
</svg>